<svg width="128" height="37" viewBox="0 0 128 37" fill="none" xmlns="http://www.w3.org/2000/svg">
<path d="M13.56 12.56H8.64V20.76C8.64 21.56 8.65333 22.1333 8.68 22.48C8.73333 22.8 8.88 23.08 9.12 23.32C9.38667 23.56 9.78667 23.68 10.32 23.68L13.36 23.6L13.6 27.88C11.8133 28.28 10.4533 28.48 9.52 28.48C7.12 28.48 5.48 27.9467 4.6 26.88C3.72 25.7867 3.28 23.7867 3.28 20.88V12.56H0.92V8H3.28V2.44H8.64V8H13.56V12.56ZM21.4503 20.28C21.477 21.5067 21.797 22.4 22.4103 22.96C23.0503 23.4933 23.957 23.76 25.1303 23.76C27.6103 23.76 29.8236 23.68 31.7703 23.52L32.8903 23.4L32.9703 27.36C29.9036 28.1067 27.1303 28.48 24.6503 28.48C21.637 28.48 19.4503 27.68 18.0903 26.08C16.7303 24.48 16.0503 21.88 16.0503 18.28C16.0503 11.1067 18.997 7.52 24.8903 7.52C30.7036 7.52 33.6103 10.5333 33.6103 16.56L33.2103 20.28H21.4503ZM28.3303 16.2C28.3303 14.6 28.077 13.4933 27.5703 12.88C27.0636 12.24 26.1703 11.92 24.8903 11.92C23.637 11.92 22.7436 12.2533 22.2103 12.92C21.7036 13.56 21.437 14.6533 21.4103 16.2H28.3303ZM37.6809 28V-1.90735e-06H43.0409V28H37.6809ZM52.6222 20.28C52.6489 21.5067 52.9689 22.4 53.5822 22.96C54.2222 23.4933 55.1289 23.76 56.3022 23.76C58.7822 23.76 60.9955 23.68 62.9422 23.52L64.0622 23.4L64.1422 27.36C61.0755 28.1067 58.3022 28.48 55.8222 28.48C52.8089 28.48 50.6222 27.68 49.2622 26.08C47.9022 24.48 47.2222 21.88 47.2222 18.28C47.2222 11.1067 50.1689 7.52 56.0622 7.52C61.8755 7.52 64.7822 10.5333 64.7822 16.56L64.3822 20.28H52.6222ZM59.5022 16.2C59.5022 14.6 59.2489 13.4933 58.7422 12.88C58.2355 12.24 57.3422 11.92 56.0622 11.92C54.8089 11.92 53.9155 12.2533 53.3822 12.92C52.8755 13.56 52.6089 14.6533 52.5822 16.2H59.5022ZM68.6128 36.4V8H73.9328V9.08C75.6661 8.04 77.1861 7.52 78.4928 7.52C81.1861 7.52 83.1728 8.33333 84.4528 9.96C85.7328 11.56 86.3728 14.2933 86.3728 18.16C86.3728 22.0267 85.6661 24.72 84.2528 26.24C82.8395 27.7333 80.5195 28.48 77.2928 28.48C76.4128 28.48 75.4661 28.4 74.4528 28.24L73.9728 28.16V36.4H68.6128ZM77.4528 12.32C76.4661 12.32 75.4661 12.52 74.4528 12.92L73.9728 13.12V23.6C75.1728 23.76 76.1461 23.84 76.8928 23.84C78.4395 23.84 79.4928 23.3867 80.0528 22.48C80.6395 21.5733 80.9328 20.0267 80.9328 17.84C80.9328 14.16 79.7728 12.32 77.4528 12.32ZM105.691 14.24V22.56C105.744 23.2 105.851 23.6533 106.011 23.92C106.171 24.16 106.504 24.3333 107.011 24.44L106.851 28.48C105.491 28.48 104.397 28.3867 103.571 28.2C102.771 28.0133 101.957 27.64 101.131 27.08C99.2106 28.0133 97.2506 28.48 95.2506 28.48C91.1173 28.48 89.0506 26.2933 89.0506 21.92C89.0506 19.7867 89.624 18.28 90.7706 17.4C91.9173 16.4933 93.6773 15.96 96.0506 15.8L100.331 15.48V14.24C100.331 13.4133 100.144 12.8533 99.7706 12.56C99.3973 12.24 98.7973 12.08 97.9706 12.08L90.4506 12.4L90.2906 8.68C93.144 7.90667 95.8506 7.52 98.4106 7.52C100.997 7.52 102.851 8.05333 103.971 9.12C105.117 10.1867 105.691 11.8933 105.691 14.24ZM96.6906 19.52C95.1973 19.6533 94.4506 20.4533 94.4506 21.92C94.4506 23.3867 95.104 24.12 96.4106 24.12C97.424 24.12 98.5306 23.96 99.7306 23.64L100.331 23.48V19.2L96.6906 19.52ZM108.687 8H113.967L117.607 23.44H118.527L122.167 8H127.447L120.407 36.4H115.167L117.367 28H113.607L108.687 8Z" fill="black"/>
</svg>
